<svg width="24" height="23" viewBox="0 0 24 23" fill="none" xmlns="http://www.w3.org/2000/svg">
<path fill-rule="evenodd" clip-rule="evenodd" d="M3.48877 5.7537C2.76311 6.94587 2.52428 8.6001 2.97014 10.3092C3.13059 10.9243 3.59703 11.715 4.33627 12.6251C5.06116 13.5175 5.9864 14.4504 6.96636 15.3455C8.90945 17.1204 11.0006 18.686 12 19.41C12.9994 18.686 15.0905 17.1204 17.0336 15.3455C18.0136 14.4504 18.9388 13.5175 19.6637 12.6251C20.403 11.715 20.8694 10.9243 21.0299 10.3092C21.4757 8.6001 21.2369 6.94587 20.5112 5.7537C19.8029 4.59007 18.6202 3.83332 17 3.83332C15.5904 3.83332 14.5969 4.83217 13.8944 6.17857C13.5569 6.82551 13.3275 7.48213 13.1823 7.98305C13.1102 8.23168 13.0602 8.4375 13.0286 8.57872C12.9167 9.07916 12.3143 9.10416 12 9.10416C11.6857 9.10416 11.0823 9.0745 10.9714 8.57872C10.9398 8.4375 10.8898 8.23168 10.8177 7.98305C10.6725 7.48213 10.4431 6.82551 10.1056 6.17857C9.40308 4.83218 8.40956 3.83332 6.99998 3.83332C5.37979 3.83332 4.19706 4.59007 3.48877 5.7537ZM12 5.52968C12.0341 5.46042 12.0693 5.39095 12.1056 5.32141C12.9031 3.79281 14.4096 1.91666 17 1.91666C19.3798 1.91666 21.1971 3.07658 22.2388 4.78795C23.2631 6.47078 23.5243 8.64988 22.9701 10.7741C22.7076 11.7805 22.0354 12.8256 21.2419 13.8024C20.4341 14.7969 19.4327 15.802 18.4135 16.7329C16.3742 18.5957 14.1957 20.2229 13.181 20.9571C12.4803 21.4641 11.5197 21.4641 10.819 20.9571C9.80433 20.2229 7.62583 18.5957 5.58648 16.7329C4.56733 15.802 3.56586 14.7969 2.75806 13.8024C1.96461 12.8256 1.2924 11.7805 1.02986 10.7741C0.475714 8.64988 0.736884 6.47078 1.76121 4.78795C2.80291 3.07658 4.62017 1.91666 6.99998 1.91666C9.59038 1.91666 11.0969 3.7928 11.8944 5.32141C11.9307 5.39095 11.9659 5.46042 12 5.52968Z" fill="white"/>
</svg>
